<?xml version="1.0" encoding="utf-8"?>
<!-- Generator: Adobe Illustrator 24.1.0, SVG Export Plug-In . SVG Version: 6.00 Build 0)  -->
<svg version="1.1" id="Layer_1" xmlns="http://www.w3.org/2000/svg" xmlns:xlink="http://www.w3.org/1999/xlink" x="0px" y="0px"
	 viewBox="0 0 67 64" style="enable-background:new 0 0 67 64;" xml:space="preserve">
<style type="text/css">
	.st0{fill:#AEF4FF;}
</style>
<g>
	<g>
		<path class="st0" d="M26.48,34.12c-3.56-0.79-5.4,0.06-5.36,3.66L21.05,48.9c-0.08,9.93-11.2,14.29-16.9,7.71
			c-8.46-9.74-2.56-18.81,10.23-27.53c4.95-3.38,10.34-4.04,19.42-1.36l4.77,1.38c3.75,1.07,5.4-0.06,5.36-3.66l0.06-11.13
			c0-8.26,9.91-14.42,16.99-8.77c10.52,8.34,2.48,19.87-10.31,28.59c-4.95,3.38-10.35,3.44-20.07,1L26.48,34.12z"/>
	</g>
</g>
</svg>
